<svg id="Layer_1" data-name="Layer 1" xmlns="http://www.w3.org/2000/svg" viewBox="0 0 98.2 76.15"><defs><style>.cls-1,.cls-2,.cls-3,.cls-4{fill:none;stroke:#231f20;stroke-linejoin:round;stroke-width:5px;}.cls-1,.cls-2,.cls-3{stroke-linecap:round;}.cls-2{stroke-dasharray:11.42 7.62;}.cls-3{stroke-dasharray:14.21 9.48;}</style></defs><line class="cls-1" x1="95.23" y1="52.25" x2="95.23" y2="46.25"/><path class="cls-2" d="M96.37,51.71V29.89A14.32,14.32,0,0,0,82.05,15.57H54" transform="translate(-1.13 -13.07)"/><polyline class="cls-1" points="49.06 2.5 43.06 2.5 43.06 8.5"/><line class="cls-3" x1="43.06" y1="17.98" x2="43.06" y2="60.62"/><polyline class="cls-1" points="43.06 65.36 43.06 71.36 49.06 71.36"/><line class="cls-1" x1="56.18" y1="71.36" x2="62.18" y2="71.36"/><path class="cls-4" d="M18,15.57A14.32,14.32,0,0,0,3.63,29.89V70.11A14.32,14.32,0,0,0,18,84.43H37V15.57Z" transform="translate(-1.13 -13.07)"/><polygon class="cls-1" points="95.7 61.09 79.69 61.93 68.75 73.65 67.3 35.34 95.7 61.09"/></svg>